<svg width="373" height="121" viewBox="0 0 373 121" fill="none" xmlns="http://www.w3.org/2000/svg">
<g filter="url(#filter0_d_1_312)">
<circle cx="60.7572" cy="48.2657" r="30" fill="white"/>
</g>
<path d="M62.5034 59.5119V49.2669H65.9597L66.4734 45.2557H62.5034V42.7007C62.5034 41.5432 62.8259 40.7507 64.4872 40.7507H66.5922V37.1744C65.5684 37.0644 64.5384 37.0119 63.5084 37.0157C60.4534 37.0157 58.3559 38.8807 58.3559 42.3044V45.2482H54.9222V49.2594H58.3634V59.5119H62.5034Z" fill="#64646A"/>
<g filter="url(#filter1_d_1_312)">
<circle cx="144.757" cy="48.2657" r="30" fill="white"/>
</g>
<path d="M155.941 43.6469C155.927 42.7007 155.752 41.7619 155.417 40.8769C154.831 39.3657 153.637 38.1707 152.126 37.5857C151.252 37.2569 150.328 37.0807 149.393 37.0607C148.191 37.0069 147.81 36.9919 144.757 36.9919C141.705 36.9919 141.313 36.9919 140.12 37.0607C139.186 37.0807 138.262 37.2569 137.388 37.5857C135.877 38.1707 134.682 39.3657 134.097 40.8769C133.768 41.7507 133.591 42.6744 133.573 43.6082C133.52 44.8119 133.503 45.1932 133.503 48.2457C133.503 51.2982 133.503 51.6882 133.573 52.8832C133.592 53.8182 133.768 54.7407 134.097 55.6169C134.683 57.1269 135.877 58.3219 137.39 58.9069C138.26 59.2469 139.183 59.4394 140.121 59.4694C141.325 59.5232 141.706 59.5394 144.758 59.5394C147.811 59.5394 148.202 59.5394 149.396 59.4694C150.33 59.4507 151.253 59.2744 152.128 58.9457C153.64 58.3594 154.833 57.1644 155.42 55.6544C155.748 54.7794 155.925 53.8569 155.943 52.9207C155.997 51.7182 156.013 51.3369 156.013 48.2832C156.011 45.2307 156.011 44.8432 155.941 43.6469ZM144.75 54.0182C141.557 54.0182 138.971 51.4319 138.971 48.2394C138.971 45.0469 141.557 42.4607 144.75 42.4607C147.94 42.4607 150.528 45.0469 150.528 48.2394C150.528 51.4319 147.94 54.0182 144.75 54.0182ZM150.758 43.5944C150.012 43.5944 149.411 42.9919 149.411 42.2469C149.411 41.5019 150.012 40.8994 150.758 40.8994C151.502 40.8994 152.105 41.5019 152.105 42.2469C152.105 42.9919 151.502 43.5944 150.758 43.5944Z" fill="#64646A"/>
<path d="M144.75 51.9932C146.823 51.9932 148.503 50.3125 148.503 48.2394C148.503 46.1663 146.823 44.4857 144.75 44.4857C142.677 44.4857 140.996 46.1663 140.996 48.2394C140.996 50.3125 142.677 51.9932 144.75 51.9932Z" fill="#64646A"/>
<g filter="url(#filter2_d_1_312)">
<circle cx="228.757" cy="48.2657" r="30" fill="white"/>
</g>
<path d="M238.298 43.2619C238.315 43.4807 238.315 43.6982 238.315 43.9157C238.315 50.5719 233.248 58.2419 223.99 58.2419C221.137 58.2419 218.487 57.4157 216.257 55.9807C216.662 56.0269 217.052 56.0432 217.473 56.0432C219.827 56.0432 221.993 55.2482 223.725 53.8919C221.511 53.8457 219.656 52.3957 219.016 50.4007C219.327 50.4469 219.64 50.4782 219.967 50.4782C220.418 50.4782 220.872 50.4157 221.293 50.3069C218.985 49.8394 217.256 47.8132 217.256 45.3657V45.3032C217.927 45.6769 218.706 45.9107 219.531 45.9419C218.175 45.0394 217.286 43.4957 217.286 41.7494C217.286 40.8144 217.535 39.9569 217.971 39.2094C220.45 42.2632 224.176 44.2594 228.353 44.4782C228.276 44.1032 228.228 43.7144 228.228 43.3244C228.228 40.5494 230.473 38.2894 233.263 38.2894C234.713 38.2894 236.022 38.8969 236.942 39.8794C238.08 39.6607 239.17 39.2394 240.137 38.6632C239.763 39.8319 238.967 40.8144 237.923 41.4382C238.937 41.3282 239.92 41.0482 240.822 40.6582C240.137 41.6557 239.281 42.5444 238.298 43.2619Z" fill="#64646A"/>
<g filter="url(#filter3_d_1_312)">
<circle cx="312.757" cy="48.2657" r="30" fill="white"/>
</g>
<path d="M303.986 42.2619C305.496 42.2619 306.721 41.0374 306.721 39.5269C306.721 38.0164 305.496 36.7919 303.986 36.7919C302.475 36.7919 301.251 38.0164 301.251 39.5269C301.251 41.0374 302.475 42.2619 303.986 42.2619Z" fill="#64646A"/>
<path d="M309.303 44.3344V59.5082H314.015V52.0044C314.015 50.0244 314.387 48.1069 316.842 48.1069C319.263 48.1069 319.293 50.3707 319.293 52.1294V59.5094H324.007V51.1882C324.007 47.1007 323.127 43.9594 318.35 43.9594C316.056 43.9594 314.518 45.2182 313.89 46.4094H313.826V44.3344H309.303ZM301.626 44.3344H306.345V59.5082H301.626V44.3344Z" fill="#64646A"/>
<defs>
<filter id="filter0_d_1_312" x="0.757202" y="0.265686" width="120" height="120" filterUnits="userSpaceOnUse" color-interpolation-filters="sRGB">
<feFlood flood-opacity="0" result="BackgroundImageFix"/>
<feColorMatrix in="SourceAlpha" type="matrix" values="0 0 0 0 0 0 0 0 0 0 0 0 0 0 0 0 0 0 127 0" result="hardAlpha"/>
<feOffset dy="12"/>
<feGaussianBlur stdDeviation="15"/>
<feComposite in2="hardAlpha" operator="out"/>
<feColorMatrix type="matrix" values="0 0 0 0 0.802604 0 0 0 0 0.820052 0 0 0 0 0.8375 0 0 0 0.28 0"/>
<feBlend mode="normal" in2="BackgroundImageFix" result="effect1_dropShadow_1_312"/>
<feBlend mode="normal" in="SourceGraphic" in2="effect1_dropShadow_1_312" result="shape"/>
</filter>
<filter id="filter1_d_1_312" x="84.7572" y="0.265686" width="120" height="120" filterUnits="userSpaceOnUse" color-interpolation-filters="sRGB">
<feFlood flood-opacity="0" result="BackgroundImageFix"/>
<feColorMatrix in="SourceAlpha" type="matrix" values="0 0 0 0 0 0 0 0 0 0 0 0 0 0 0 0 0 0 127 0" result="hardAlpha"/>
<feOffset dy="12"/>
<feGaussianBlur stdDeviation="15"/>
<feComposite in2="hardAlpha" operator="out"/>
<feColorMatrix type="matrix" values="0 0 0 0 0.802604 0 0 0 0 0.820052 0 0 0 0 0.8375 0 0 0 0.28 0"/>
<feBlend mode="normal" in2="BackgroundImageFix" result="effect1_dropShadow_1_312"/>
<feBlend mode="normal" in="SourceGraphic" in2="effect1_dropShadow_1_312" result="shape"/>
</filter>
<filter id="filter2_d_1_312" x="168.757" y="0.265686" width="120" height="120" filterUnits="userSpaceOnUse" color-interpolation-filters="sRGB">
<feFlood flood-opacity="0" result="BackgroundImageFix"/>
<feColorMatrix in="SourceAlpha" type="matrix" values="0 0 0 0 0 0 0 0 0 0 0 0 0 0 0 0 0 0 127 0" result="hardAlpha"/>
<feOffset dy="12"/>
<feGaussianBlur stdDeviation="15"/>
<feComposite in2="hardAlpha" operator="out"/>
<feColorMatrix type="matrix" values="0 0 0 0 0.802604 0 0 0 0 0.820052 0 0 0 0 0.8375 0 0 0 0.28 0"/>
<feBlend mode="normal" in2="BackgroundImageFix" result="effect1_dropShadow_1_312"/>
<feBlend mode="normal" in="SourceGraphic" in2="effect1_dropShadow_1_312" result="shape"/>
</filter>
<filter id="filter3_d_1_312" x="252.757" y="0.265686" width="120" height="120" filterUnits="userSpaceOnUse" color-interpolation-filters="sRGB">
<feFlood flood-opacity="0" result="BackgroundImageFix"/>
<feColorMatrix in="SourceAlpha" type="matrix" values="0 0 0 0 0 0 0 0 0 0 0 0 0 0 0 0 0 0 127 0" result="hardAlpha"/>
<feOffset dy="12"/>
<feGaussianBlur stdDeviation="15"/>
<feComposite in2="hardAlpha" operator="out"/>
<feColorMatrix type="matrix" values="0 0 0 0 0.802604 0 0 0 0 0.820052 0 0 0 0 0.8375 0 0 0 0.28 0"/>
<feBlend mode="normal" in2="BackgroundImageFix" result="effect1_dropShadow_1_312"/>
<feBlend mode="normal" in="SourceGraphic" in2="effect1_dropShadow_1_312" result="shape"/>
</filter>
</defs>
</svg>
